<svg width="768" height="768" viewBox="0 0 768 768" fill="none" xmlns="http://www.w3.org/2000/svg">
<path d="M384 48C476.034 48 551.566 118.642 559.338 208.661C649.358 216.433 720 291.966 720 384C720 476.034 649.358 551.566 559.338 559.338C551.566 649.358 476.034 720 384 720C291.966 720 216.433 649.358 208.661 559.338C118.642 551.566 48 476.034 48 384L48.0146 381.726C49.1671 290.724 119.384 216.369 208.661 208.661C216.433 118.642 291.966 48 384 48ZM240.882 560C248.26 626.746 301.254 679.74 368 687.118V560H240.882ZM528 400.881C456.001 408.84 400 469.879 400 544V687.118C471.999 679.159 528 618.121 528 544V400.881ZM80.8818 400C88.8411 471.999 149.879 528 224 528H367.118C359.159 456.001 298.121 400 224 400H80.8818ZM560 527.118C626.746 519.74 679.74 466.746 687.118 400H560V527.118ZM384 297.415C366.444 335.613 335.613 366.444 297.415 384C335.613 401.556 366.444 432.386 384 470.584C401.556 432.386 432.386 401.556 470.584 384C432.386 366.444 401.556 335.613 384 297.415ZM400.882 240C408.841 311.999 469.879 368 544 368H687.118C679.159 296.001 618.121 240 544 240H400.882ZM208 240.881C141.254 248.259 88.2603 301.254 80.8818 368H208V240.881ZM368 80.8809C296.001 88.8401 240 149.879 240 224V367.118C311.999 359.159 368 298.121 368 224V80.8809ZM400 208H527.118C519.74 141.254 466.746 88.2593 400 80.8809V208Z" fill="white"/>
</svg>
